:FULLY-SPECIFIED
:FORCE-ALL-JOINTS-BE-3DOF
:DEGREES
2141
root -2.36866 15.2668 -0.104309 -175.727 8.89934 -171.148
lfemur -57.8572 20.0476 -23.4187
ltibia 38.2915 0 0
lfoot 13.2663 19.1043 -0.202026
ltoes 9.07877 0 0
rfemur 8.28691 -3.20538 28.4502
rtibia 41.5405 0 0
rfoot -23.0772 6.06323 -0.00234342
rtoes -33.2877 0 0
lowerback 8.74481 1.23886 2.10175
upperback -2.51361 2.36356 3.80947
thorax -7.60776 1.22835 2.48718
lowerneck -5.80244 -1.0127 -5.80516
upperneck 7.70393 -1.1028 3.40891
head 3.57213 -0.569643 2.06898
lclavicle -3.29566e-14 -5.55636e-14 1.41712e-31
lhumerus 56.8047 -3.7865 101.171
lradius 13.0498 0 0
lwrist -61.2189 0 0
lhand -36.3623 44.0851 -0.410589
lfingers 7.12502 0 0
lthumb -8.03459 67.2351 -1.83746
rclavicle -3.29566e-14 -5.55636e-14 1.41712e-31
rhumerus -58.1769 20.0551 -100.997
rradius 111.284 0 0
rwrist -85.8967 180 180
rhand -11.0459 -32.8006 0.171593
rfingers 7.12502 0 0
rthumb 14.0105 -59.2099 2.07245
2142
root -2.34657 15.2709 -0.361235 -175.781 8.81055 -171.193
lfemur -57.7057 20.0053 -23.3946
ltibia 38.3503 0 0
lfoot 13.1354 19.126 -0.207879
ltoes 8.94847 0 0
rfemur 8.09955 -3.18146 28.3864
rtibia 41.5828 0 0
rfoot -22.9474 6.06182 -0.00427974
rtoes -33.1704 0 0
lowerback 8.76372 1.23081 2.05975
upperback -2.50518 2.34748 3.8043
thorax -7.60774 1.22169 2.50843
lowerneck -5.80297 -1.02739 -5.81048
upperneck 7.73359 -1.12527 3.41545
head 3.58177 -0.581668 2.0693
lclavicle -3.28693e-14 -5.53779e-14 9.56035e-32
lhumerus 56.711 -3.90015 101.088
lradius 13.201 0 0
lwrist -61.027 0 0
lhand -36.3433 44.0555 -0.413285
lfingers 7.12502 0 0
lthumb -8.00979 67.1815 -1.84337
rclavicle -3.28693e-14 -5.53779e-14 9.56035e-32
rhumerus -58.0191 20.0459 -100.895
rradius 111.341 0 0
rwrist -86.0041 180 180
rhand -10.7953 -32.7866 0.179282
rfingers 7.12502 0 0
rthumb 14.2013 -58.9953 2.18895
2143
root -2.32449 15.2751 -0.618161 -175.832 8.71292 -171.243
lfemur -57.5162 19.9527 -23.357
ltibia 38.4471 0 0
lfoot 12.9973 19.1318 -0.211325
ltoes 8.77832 0 0
rfemur 7.87212 -3.15041 28.3263
rtibia 41.6443 0 0
rfoot -22.8212 6.04579 -0.00647006
rtoes -33.0267 0 0
lowerback 8.78339 1.22509 2.01716
upperback -2.49536 2.33402 3.7964
thorax -7.60681 1.21622 2.52667
lowerneck -5.79961 -1.0473 -5.81728
upperneck 7.75603 -1.15493 3.42515
head 3.58907 -0.597124 2.07101
lclavicle -3.27341e-14 -5.5162e-14 3.31827e-32
lhumerus 56.5042 -4.01841 101.001
lradius 13.4283 0 0
lwrist -60.7562 0 0
lhand -36.3002 44.0601 -0.407437
lfingers 7.12502 0 0
lthumb -7.99401 67.3017 -1.81178
rclavicle -3.27341e-14 -5.5162e-14 3.31827e-32
rhumerus -57.7726 20.0751 -100.761
rradius 111.323 0 0
rwrist -86.1874 180 180
rhand -10.553 -32.7831 0.185994
rfingers 7.12502 0 0
rthumb 14.3887 -58.8036 2.29642
2144
root -2.30241 15.2792 -0.875087 -175.883 8.60288 -171.302
lfemur -57.2847 19.8885 -23.3061
ltibia 38.5817 0 0
lfoot 12.8465 19.1241 -0.212883
ltoes 8.56529 0 0
rfemur 7.59893 -3.11174 28.2665
rtibia 41.7254 0 0
rfoot -22.6923 6.01623 -0.00893707
rtoes -32.8532 0 0
lowerback 8.80463 1.22115 1.97204
upperback -2.48386 2.32222 3.78577
thorax -7.60506 1.21153 2.54315
lowerneck -5.79268 -1.07272 -5.82569
upperneck 7.77323 -1.19228 3.43807
head 3.59467 -0.616309 2.074
lclavicle -3.25507e-14 -5.49096e-14 -4.60095e-32
lhumerus 56.1884 -4.14661 100.906
lradius 13.7327 0 0
lwrist -60.4033 0 0
lhand -36.2339 44.0949 -0.393883
lfingers 7.12502 0 0
lthumb -7.98516 67.5794 -1.74599
rclavicle -3.25507e-14 -5.49096e-14 -4.60095e-32
rhumerus -57.4365 20.1385 -100.593
rradius 111.24 0 0
rwrist -86.4456 180 180
rhand -10.3065 -32.7887 0.192228
rfingers 7.12502 0 0
rthumb 14.582 -58.6226 2.40112
2145
root -2.28032 15.2833 -1.13201 -175.937 8.47698 -171.369
lfemur -57.007 19.8115 -23.2419
ltibia 38.7538 0 0
lfoot 12.6773 19.1051 -0.213061
ltoes 8.30636 0 0
rfemur 7.27428 -3.06503 28.2036
rtibia 41.8266 0 0
rfoot -22.5542 5.9742 -0.0117028
rtoes -32.6465 0 0
lowerback 8.82829 1.21843 1.92245
upperback -2.47039 2.31111 3.77235
thorax -7.60254 1.20721 2.5591
lowerneck -5.78252 -1.10391 -5.83585
upperneck 7.78713 -1.23782 3.45426
head 3.5992 -0.639522 2.07819
lclavicle -3.23187e-14 -5.46141e-14 -1.42302e-31
lhumerus 55.7687 -4.29004 100.802
lradius 14.1156 0 0
lwrist -59.9659 0 0
lhand -36.1455 44.1556 -0.373488
lfingers 7.12502 0 0
lthumb -7.98091 67.9986 -1.64915
rclavicle -3.23187e-14 -5.46141e-14 -1.42302e-31
rhumerus -57.0098 20.2322 -100.388
rradius 111.099 0 0
rwrist -86.7779 180 180
rhand -10.0433 -32.8017 0.198471
rfingers 7.12502 0 0
rthumb 14.7906 -58.4403 2.50906
2146
root -2.25824 15.2875 -1.38894 -175.997 8.33167 -171.447
lfemur -56.6791 19.7201 -23.1646
ltibia 38.9633 0 0
lfoot 12.4842 19.0771 -0.212374
ltoes 7.99852 0 0
rfemur 6.89227 -3.00985 28.1339
rtibia 41.9484 0 0
rfoot -22.4006 5.92083 -0.0147772
rtoes -32.403 0 0
lowerback 8.8552 1.21637 1.86646
upperback -2.45465 2.29972 3.75613
thorax -7.59934 1.20286 2.57577
lowerneck -5.76946 -1.14118 -5.8479
upperneck 7.79972 -1.29203 3.47379
head 3.60332 -0.667061 2.08347
lclavicle -3.20378e-14 -5.42692e-14 -2.55863e-31
lhumerus 55.2494 -4.45419 100.684
lradius 14.5779 0 0
lwrist -59.441 0 0
lhand -36.0359 44.2384 -0.347134
lfingers 7.12502 0 0
lthumb -7.97877 68.5426 -1.5246
rclavicle -3.20378e-14 -5.42692e-14 -2.55863e-31
rhumerus -56.4921 20.3515 -100.143
rradius 110.909 0 0
rwrist -87.1835 180 180
rhand -9.75091 -32.8208 0.205208
rfingers 7.12502 0 0
rthumb 15.0238 -58.2447 2.62617
2147
root -2.23616 15.2916 -1.64587 -176.065 8.16341 -171.538
lfemur -56.297 19.6131 -23.0745
ltibia 39.21 0 0
lfoot 12.2615 19.0424 -0.211333
ltoes 7.63862 0 0
rfemur 6.44749 -2.94594 28.0542
rtibia 42.0914 0 0
rfoot -22.2249 5.85721 -0.0181587
rtoes -32.1193 0 0
lowerback 8.88619 1.21443 1.80214
upperback -2.43637 2.2871 3.73707
thorax -7.59551 1.19805 2.59438
lowerneck -5.75381 -1.18478 -5.86198
upperneck 7.81293 -1.35543 3.4967
head 3.60765 -0.699223 2.08977
lclavicle -3.17076e-14 -5.38686e-14 -3.86676e-31
lhumerus 54.6353 -4.64464 100.55
lradius 15.1209 0 0
lwrist -58.8258 0 0
lhand -35.9061 44.339 -0.315712
lfingers 7.12502 0 0
lthumb -7.97622 69.1955 -1.37553
rclavicle -3.17076e-14 -5.38686e-14 -3.86676e-31
rhumerus -55.8821 20.4921 -99.8547
rradius 110.68 0 0
rwrist -87.6612 180 180
rhand -9.41688 -32.8443 0.212926
rfingers 7.12502 0 0
rthumb 15.2912 -58.0234 2.75824
2148
root -2.21408 15.2957 -1.90279 -176.143 7.96864 -171.643
lfemur -55.8569 19.4889 -22.9718
ltibia 39.4936 0 0
lfoot 12.0035 19.0032 -0.210453
ltoes 7.22386 0 0
rfemur 5.93409 -2.87308 27.9607
rtibia 42.256 0 0
rfoot -22.0209 5.78441 -0.0218262
rtoes -31.7919 0 0
lowerback 8.92211 1.21206 1.72753
upperback -2.41524 2.27228 3.71513
thorax -7.59113 1.1924 2.61619
lowerneck -5.73591 -1.23502 -5.87823
upperneck 7.82874 -1.4285 3.52305
head 3.61283 -0.736307 2.09697
lclavicle -3.13277e-14 -5.34058e-14 -5.34504e-31
lhumerus 53.9312 -4.86707 100.398
lradius 15.7457 0 0
lwrist -58.1173 0 0
lhand -35.7571 44.4536 -0.280112
lfingers 7.12502 0 0
lthumb -7.97072 69.9411 -1.20524
rclavicle -3.13277e-14 -5.34058e-14 -5.34504e-31
rhumerus -55.179 20.6489 -99.5202
rradius 110.418 0 0
rwrist -88.2104 180 180
rhand -9.02856 -32.8708 0.222114
rfingers 7.12502 0 0
rthumb 15.6022 -57.7641 2.91073
2149
root -2.19199 15.2999 -2.15972 -176.235 7.74378 -171.762
lfemur -55.3547 19.3461 -22.8572
ltibia 39.8139 0 0
lfoot 11.7047 18.9618 -0.210242
ltoes 6.75113 0 0
rfemur 5.34633 -2.79118 27.8499
rtibia 42.4426 0 0
rfoot -21.7819 5.70353 -0.0257374
rtoes -31.4173 0 0
lowerback 8.9638 1.20872 1.6407
upperback -2.39099 2.2543 3.69028
thorax -7.58627 1.18548 2.64243
lowerneck -5.71609 -1.29217 -5.8968
upperneck 7.8491 -1.51175 3.55287
head 3.6195 -0.77861 2.10498
lclavicle -3.08978e-14 -5.28744e-14 -6.98867e-31
lhumerus 53.1418 -5.1273 100.224
lradius 16.4535 0 0
lwrist -57.3127 0 0
lhand -35.5899 44.5779 -0.241213
lfingers 7.12502 0 0
lthumb -7.9598 70.7631 -1.01706
rclavicle -3.08978e-14 -5.28744e-14 -6.98867e-31
rhumerus -54.3816 20.8169 -99.1364
rradius 110.133 0 0
rwrist -88.83 180 180
rhand -8.5737 -32.8986 0.233255
rfingers 7.12502 0 0
rthumb 15.9667 -57.4543 3.08889
2150
root -2.16991 15.304 -2.41664 -176.342 7.48523 -171.899
lfemur -54.7867 19.183 -22.731
ltibia 40.1707 0 0
lfoot 11.3594 18.9207 -0.2112
ltoes 6.21741 0 0
rfemur 4.67845 -2.70031 27.7181
rtibia 42.6519 0 0
rfoot -21.5017 5.61564 -0.029826
rtoes -30.9921 0 0
lowerback 9.01208 1.20388 1.5397
upperback -2.3633 2.2322 3.66249
thorax -7.58101 1.17689 2.67434
lowerneck -5.69466 -1.35651 -5.91781
upperneck 7.87595 -1.60568 3.58622
head 3.62829 -0.826433 2.11372
lclavicle -3.04176e-14 -5.2268e-14 -8.79006e-31
lhumerus 52.2721 -5.43129 100.027
lradius 17.2454 0 0
lwrist -56.4092 0 0
lhand -35.4055 44.7079 -0.199877
lfingers 7.12502 0 0
lthumb -7.94112 71.6454 -0.81444
rclavicle -3.04176e-14 -5.2268e-14 -8.79006e-31
rhumerus -53.4892 20.9905 -98.7002
rradius 109.834 0 0
rwrist -89.5191 180 180
rhand -8.03971 -32.9261 0.246832
rfingers 7.12502 0 0
rthumb 16.3947 -57.0812 3.29758
2151
root -2.14783 15.3082 -2.67357 -176.467 7.18936 -172.053
lfemur -54.149 18.9982 -22.5939
ltibia 40.5639 0 0
lfoot 10.9619 18.8819 -0.213809
ltoes 5.61969 0 0
rfemur 3.92468 -2.60073 27.5615
rtibia 42.8842 0 0
rfoot -21.1737 5.52183 -0.034002
rtoes -30.5129 0 0
lowerback 9.06782 1.19703 1.42261
upperback -2.33189 2.20502 3.63171
thorax -7.57542 1.16622 2.71317
lowerneck -5.67195 -1.42833 -5.94143
upperneck 7.91125 -1.7108 3.6231
head 3.63986 -0.880073 2.12306
lclavicle -2.98867e-14 -5.15803e-14 -1.07386e-30
lhumerus 51.3269 -5.78516 99.8055
lradius 18.1226 0 0
lwrist -55.4039 0 0
lhand -35.205 44.8397 -0.156943
lfingers 7.12502 0 0
lthumb -7.91248 72.5718 -0.600862
rclavicle -2.98867e-14 -5.15803e-14 -1.07386e-30
rhumerus -52.5008 21.1642 -98.2087
rradius 109.529 0 0
rwrist -89.723 0 0
rhand -7.41412 -32.9518 0.263308
rfingers 7.12502 0 0
rthumb 16.8964 -56.6319 3.54112
2152
root -2.12574 15.3123 -2.9305 -176.613 6.85245 -172.226
lfemur -53.4378 18.7899 -22.4468
ltibia 40.993 0 0
lfoot 10.5068 18.8479 -0.21852
ltoes 4.95494 0 0
rfemur 3.07922 -2.49293 27.3765
rtibia 43.1401 0 0
rfoot -20.7916 5.42317 -0.0381523
rtoes -29.9761 0 0
lowerback 9.13186 1.18766 1.28744
upperback -2.29647 2.17179 3.59791
thorax -7.56957 1.15306 2.76014
lowerneck -5.64828 -1.5079 -5.96778
upperneck 7.95696 -1.82761 3.66354
head 3.65482 -0.93983 2.13293
lclavicle -2.93047e-14 -5.08049e-14 -1.28202e-30
lhumerus 50.3113 -6.19514 99.5569
lradius 19.0863 0 0
lwrist -54.2941 0 0
lhand -34.9892 44.969 -0.113218
lfingers 7.12502 0 0
lthumb -7.87192 73.5262 -0.379895
rclavicle -2.93047e-14 -5.08049e-14 -1.28202e-30
rhumerus -51.4155 21.3317 -97.6593
rradius 109.226 0 0
rwrist -88.8973 0 0
rhand -6.68442 -32.9741 0.283118
rfingers 7.12502 0 0
rthumb 17.4824 -56.0929 3.82322
